<?xml version="1.0" encoding="UTF-8" standalone="no"?>
<!-- Created by SaveAsSVG AddIn Version 1.370 for Fusion 360 (https://icarussoftlandings.com/app/product/saveassvg/) -->
<svg xmlns="http://www.w3.org/2000/svg"
  version="1.1"
  id="svg2"
  viewBox="0 -37.8975 236.5984252 303.3225591">
  <g>
    <!-- Perimeter -->
      <path
        fill="none"
        style="stroke:rgb(0,0,255);stroke-width:37.795;vector-effect:non-scaling-stroke"
        transform="matrix(1,0,0,-1,117.60341,113.82590909999999)"
        d="M -58.94402 85.24443 L -58.94402,85.24443 L -58.0138,86.24894 L -56.95526,87.3517 L -55.76136,88.55459 L -54.43023,89.85385 L -52.96448,91.24091 L -51.37058,92.70316 L -49.65819,94.2247 L -47.8395,95.78717 L -45.92861,97.37051 L -43.94088,98.95377 L -39.79865,102.03638 L -37.67526,103.49633 L -35.53598,104.87897 L -33.39265,106.17062 L -31.25469,107.36115 L -29.129,108.444 L -27.02029,109.41589 L -24.93134,110.27631 L -22.8633,111.02722 L -20.81597,111.67264 L -18.7881,112.21828 L -16.77766,112.67113 L -14.78213,113.0391 L -10.82502,113.5543 L -6.8978,113.8309 L -2.99196,113.9261 L 0.88486,113.87876 L 4.71168,113.70988 L 8.46031,113.42666 L 12.10175,113.02674 L 15.61243,112.50239 L 18.98051,111.84475 L 22.20991,111.04707 L 25.31777,110.10523 L 28.32877,109.017 L 31.26936,107.78121 L 34.16194,106.39693 L 37.01985,104.86273 L 39.84665,103.17685 L 42.63888,101.33778 L 45.38919,99.3451 L 48.08946,97.20016 L 50.73383,94.90682 L 53.32063,92.47134 L 55.8523,89.90101 L 58.33493,87.20241 L 60.77772,84.37972 L 63.1925,81.43302 L 65.59316,78.35674 L 67.99471,75.13997 L 70.41187,71.76917 L 72.85752,68.23127 L 75.34115,64.51682 L 77.86736,60.62314 L 80.43427,56.55746 L 83.03225,52.33966 L 85.64416,48.00216 L 90.81573,39.14036 L 93.32244,34.71221 L 95.74166,30.34918 L 98.05112,26.09248 L 100.23424,21.97381 L 102.28223,18.01188 L 104.19431,14.21147 L 105.97569,10.56554 L 107.63513,7.058 L 109.1825,3.66639 L 110.62636,0.36462 L 111.97157,-2.87432 L 113.21753,-6.07594 L 114.3589,-9.26267 L 115.38738,-12.45279 L 116.29367,-15.65934 L 117.06932,-18.88906 L 117.70855,-22.14141 L 118.20898,-25.4089 L 118.57104,-28.67877 L 118.79717,-31.93516 L 118.89092,-35.1611 L 118.85619,-38.34058 L 118.69676,-41.4599 L 118.41684,-44.50745 L 118.02186,-47.47296 L 117.51931,-50.34669 L 116.91955,-53.1187 L 116.23579,-55.77906 L 115.48233,-58.31997 L 114.67224,-60.73871 L 113.81503,-63.04041 L 112.91449,-65.24022 L 110.96487,-69.43514 L 109.88892,-71.49003 L 108.71777,-73.55399 L 107.43341,-75.64237 L 106.03479,-77.74817 L 104.55079,-79.8317 L 103.04518,-81.81862 L 101.59809,-83.62268 L 100.27595,-85.18065 L 99.10162,-86.48684 L 98.03935,-87.60735 L 95.93625,-89.71216 L 94.73196,-90.86594 L 93.34273,-92.14216 L 91.73626,-93.53853 L 89.90616,-95.02577 L 87.86919,-96.55846 L 85.66217,-98.08608 L 83.33737,-99.56212 L 80.9543,-100.94862 L 78.57022,-102.2188 L 76.23058,-103.35981 L 73.96025,-104.37457 L 71.75968,-105.27931 L 67.44881,-106.85331 L 65.2226,-107.56602 L 62.85183,-108.24764 L 60.27876,-108.90344 L 57.48637,-109.53251 L 54.51707,-110.12868 L 51.46387,-110.68234 L 48.43855,-111.18324 L 45.53773,-111.6233 L 42.80873,-111.99948 L 40.22411,-112.31577 L 37.69136,-112.58199 L 35.08674,-112.81019 L 32.29065,-113.01106 L 29.22092,-113.19047 L 27.57235,-113.27237 L 25.8484,-113.34865 L 22.19222,-113.4821 L 18.31195,-113.58599 L 14.29961,-113.65653 L 10.27178,-113.69341 L 6.3603,-113.70165 L 4.48978,-113.69794 L 2.69634,-113.69091 L 0.99278,-113.68205 L -0.61083,-113.67276 L -2.10782,-113.6643 L -3.49562,-113.65767 L -4.77643,-113.65354 L -5.95789,-113.65212 L -8.08318,-113.65573 L -10.03808,-113.66072 L -12.02041,-113.65527 L -14.1969,-113.62813 L -16.65404,-113.57224 L -19.39742,-113.48493 L -22.37782,-113.3663 L -25.51882,-113.21746 L -31.98592,-112.8298 L -35.1961,-112.58872 L -38.33409,-112.31403 L -41.37059,-112.00469 L -44.28495,-111.66087 L -47.06352,-111.28425 L -49.69774,-110.87789 L -52.18222,-110.44599 L -54.51285,-109.99363 L -56.68614,-109.52629 L -58.70299,-109.04883 L -60.57502,-108.56395 L -62.33045,-108.07076 L -65.67986,-107.03175 L -67.37864,-106.45853 L -69.15212,-105.82291 L -71.02676,-105.10213 L -73.00964,-104.27526 L -75.08612,-103.32796 L -77.22059,-102.25955 L -79.35804,-101.09058 L -81.4273,-99.86804 L -83.35559,-98.65447 L -85.09437,-97.50112 L -86.64627,-96.41945 L -88.0798,-95.36343 L -89.49829,-94.25286 L -90.98274,-93.02003 L -92.54728,-91.64701 L -94.14596,-90.16454 L -95.7099,-88.62791 L -97.18429,-87.09231 L -98.54833,-85.5944 L -99.81248,-84.14236 L -102.19421,-81.22476 L -103.40952,-79.61317 L -104.68725,-77.80556 L -106.02539,-75.77292 L -107.39162,-73.53127 L -108.73418,-71.13795 L -109.99313,-68.68734 L -111.11144,-66.30386 L -111.60337,-65.17961 L -112.04526,-64.12142 L -112.43522,-63.14245 L -112.7734,-62.25253 L -113.06223,-61.45718 L -113.30668,-60.75659 L -113.51393,-60.14502 L -113.69265,-59.61031 L -114.0017,-58.6871 L -114.3022,-57.7634 L -114.63456,-56.64698 L -115.35009,-53.97031 L -115.66182,-52.69351 L -115.91325,-51.5532 L -116.12381,-50.45745 L -116.33291,-49.25791 L -116.77886,-46.57146 L -117.16373,-43.80508 L -117.32199,-42.21679 L -117.45475,-40.43533 L -117.55313,-38.50167 L -117.60341,-36.46043 L -117.58902,-34.32002 L -117.49457,-32.06314 L -117.31056,-29.6757 L -117.03743,-27.17328 L -116.26351,-22.03005 L -115.78144,-19.49878 L -115.23386,-17.02467 L -114.606,-14.58447 L -113.88443,-12.14345 L -112.19671,-7.25324 L -111.32086,-4.93301 L -110.50724,-2.82761 L -109.79149,-0.98571 L -109.15144,0.65266 L -108.50817,2.25334 L -107.77283,3.99697 L -106.90089,5.97371 L -105.91021,8.1484 L -103.76829,12.69152 L -102.66275,14.95345 L -101.48934,17.28117 L -100.85587,18.5078 L -100.17943,19.79777 L -99.45243,21.16516 L -98.66933,22.62043 L -97.82761,24.16867 L -96.92813,25.8089 L -95.97501,27.53429 L -94.97505,29.33315 L -92.87193,33.08652 L -90.70593,36.91691 L -88.572,40.65827 L -87.54454,42.44766 L -86.55532,44.16227 L -85.61059,45.79149 L -84.71378,47.32979 L -83.86514,48.77737 L -83.06195,50.1397 L -81.56921,52.65099 L -80.17447,54.97394 L -77.38796,59.54579 L -75.87861,61.96636 L -74.25477,64.50514 L -72.52289,67.1263 L -70.716,69.76285 L -68.89291,72.32922 L -67.13348,74.7351 L -66.30365,75.85306 L -65.51839,76.90503 L -64.7829,77.88771 L -64.09855,78.80169 L -62.86383,80.44945 L -61.71571,81.95437 L -60.47642,83.49057 L -59.75869,84.3299 L -58.94402,85.24443  " />
  </g>
</svg>
